<svg xmlns="http://www.w3.org/2000/svg" xmlns:xlink="http://www.w3.org/1999/xlink" version="1.1" width="512px" height="512px" style="shape-rendering:geometricPrecision; text-rendering:geometricPrecision; image-rendering:optimizeQuality; fill-rule:evenodd; clip-rule:evenodd">
<g><path style="opacity:0.983" fill="#02bdff" d="M 65.5,-0.5 C 80.8333,-0.5 96.1667,-0.5 111.5,-0.5C 114.485,1.25495 116.985,3.58828 119,6.5C 120.38,11.4461 121.547,16.4461 122.5,21.5C 93.8333,21.5 65.1667,21.5 36.5,21.5C 43.2857,10.3824 52.9524,3.04903 65.5,-0.5 Z"/></g>
<g><path style="opacity:0.99" fill="#01bdff" d="M 159.5,-0.5 C 183.5,-0.5 207.5,-0.5 231.5,-0.5C 234.485,1.25495 236.985,3.58828 239,6.5C 240.38,11.4461 241.547,16.4461 242.5,21.5C 211.093,21.8254 179.76,21.492 148.5,20.5C 148.276,11.2744 151.943,4.27437 159.5,-0.5 Z"/></g>
<g><path style="opacity:0.99" fill="#01bdff" d="M 279.5,-0.5 C 303.5,-0.5 327.5,-0.5 351.5,-0.5C 354.485,1.25495 356.985,3.58828 359,6.5C 360.38,11.4461 361.547,16.4461 362.5,21.5C 331.093,21.8254 299.76,21.492 268.5,20.5C 268.276,11.2744 271.943,4.27437 279.5,-0.5 Z"/></g>
<g><path style="opacity:0.98" fill="#02bdff" d="M 399.5,-0.5 C 414.833,-0.5 430.167,-0.5 445.5,-0.5C 458.028,3.02416 467.695,10.3575 474.5,21.5C 445.76,21.8246 417.093,21.4913 388.5,20.5C 388.276,11.2744 391.943,4.27437 399.5,-0.5 Z"/></g>
<g><path style="opacity:0.992" fill="#05b9ff" d="M 148.5,20.5 C 179.76,21.492 211.093,21.8254 242.5,21.5C 248.456,28.9415 255.79,30.4415 264.5,26C 266.439,24.5679 267.772,22.7346 268.5,20.5C 299.76,21.492 331.093,21.8254 362.5,21.5C 368.456,28.9415 375.79,30.4415 384.5,26C 386.439,24.5679 387.772,22.7346 388.5,20.5C 417.093,21.4913 445.76,21.8246 474.5,21.5C 478.167,26.8592 480.167,32.8592 480.5,39.5C 330.5,38.1667 180.5,38.1667 30.5,39.5C 30.8326,32.8592 32.8326,26.8592 36.5,21.5C 65.1667,21.5 93.8333,21.5 122.5,21.5C 128.456,28.9415 135.79,30.4415 144.5,26C 146.439,24.5679 147.772,22.7346 148.5,20.5 Z"/></g>
<g><path style="opacity:1" fill="#07b6ff" d="M 480.5,39.5 C 480.5,43.5 480.5,47.5 480.5,51.5C 330.5,51.5 180.5,51.5 30.5,51.5C 30.5,47.5 30.5,43.5 30.5,39.5C 180.5,38.1667 330.5,38.1667 480.5,39.5 Z"/></g>
<g><path style="opacity:1" fill="#0ab3ff" d="M 30.5,51.5 C 180.5,51.5 330.5,51.5 480.5,51.5C 480.5,59.1667 480.5,66.8333 480.5,74.5C 330.5,74.5 180.5,74.5 30.5,74.5C 30.5,66.8333 30.5,59.1667 30.5,51.5 Z"/></g>
<g><path style="opacity:1" fill="#0dafff" d="M 30.5,74.5 C 180.5,74.5 330.5,74.5 480.5,74.5C 480.5,78.1667 480.5,81.8333 480.5,85.5C 330.5,85.5 180.5,85.5 30.5,85.5C 30.5,81.8333 30.5,78.1667 30.5,74.5 Z"/></g>
<g><path style="opacity:1" fill="#10abff" d="M 30.5,85.5 C 180.5,85.5 330.5,85.5 480.5,85.5C 480.5,93.8333 480.5,102.167 480.5,110.5C 330.5,110.5 180.5,110.5 30.5,110.5C 30.5,102.167 30.5,93.8333 30.5,85.5 Z"/></g>
<g><path style="opacity:1" fill="#13a8ff" d="M 30.5,110.5 C 180.5,110.5 330.5,110.5 480.5,110.5C 480.5,112.167 480.5,113.833 480.5,115.5C 330.5,115.5 180.5,115.5 30.5,115.5C 30.5,113.833 30.5,112.167 30.5,110.5 Z"/></g>
<g><path style="opacity:1" fill="#15a5ff" d="M 30.5,115.5 C 180.5,115.5 330.5,115.5 480.5,115.5C 480.5,125.167 480.5,134.833 480.5,144.5C 330.5,144.5 180.5,144.5 30.5,144.5C 30.5,134.833 30.5,125.167 30.5,115.5 Z"/></g>
<g><path style="opacity:1" fill="#1aa0ff" d="M 30.5,144.5 C 180.5,144.5 330.5,144.5 480.5,144.5C 480.5,154.5 480.5,164.5 480.5,174.5C 449.5,174.5 418.5,174.5 387.5,174.5C 392.947,163.895 390.28,156.062 379.5,151C 296.833,150.333 214.167,150.333 131.5,151C 120.569,155.959 117.902,163.792 123.5,174.5C 92.5,174.5 61.5,174.5 30.5,174.5C 30.5,164.5 30.5,154.5 30.5,144.5 Z"/></g>
<g><path style="opacity:1" fill="#e9f5ff" d="M 387.5,174.5 C 385.46,177.038 382.794,178.871 379.5,180C 296.833,180.667 214.167,180.667 131.5,180C 128.379,178.694 125.713,176.86 123.5,174.5C 117.902,163.792 120.569,155.959 131.5,151C 214.167,150.333 296.833,150.333 379.5,151C 390.28,156.062 392.947,163.895 387.5,174.5 Z"/></g>
<g><path style="opacity:1" fill="#1e9aff" d="M 30.5,174.5 C 61.5,174.5 92.5,174.5 123.5,174.5C 125.713,176.86 128.379,178.694 131.5,180C 214.167,180.667 296.833,180.667 379.5,180C 382.794,178.871 385.46,177.038 387.5,174.5C 418.5,174.5 449.5,174.5 480.5,174.5C 480.5,179.5 480.5,184.5 480.5,189.5C 330.5,189.5 180.5,189.5 30.5,189.5C 30.5,184.5 30.5,179.5 30.5,174.5 Z"/></g>
<g><path style="opacity:1" fill="#2197ff" d="M 30.5,189.5 C 180.5,189.5 330.5,189.5 480.5,189.5C 480.5,195.833 480.5,202.167 480.5,208.5C 330.5,208.5 180.5,208.5 30.5,208.5C 30.5,202.167 30.5,195.833 30.5,189.5 Z"/></g>
<g><path style="opacity:1" fill="#2593ff" d="M 30.5,208.5 C 180.5,208.5 330.5,208.5 480.5,208.5C 480.5,218.5 480.5,228.5 480.5,238.5C 448.167,238.5 415.833,238.5 383.5,238.5C 391.833,230.992 392.5,222.825 385.5,214C 383.283,212.725 380.949,211.725 378.5,211C 296.167,210.333 213.833,210.333 131.5,211C 121.807,214.726 118.641,221.56 122,231.5C 122.967,234.621 124.8,236.954 127.5,238.5C 95.1667,238.5 62.8333,238.5 30.5,238.5C 30.5,228.5 30.5,218.5 30.5,208.5 Z"/></g>
<g><path style="opacity:1" fill="#e9f5ff" d="M 383.5,238.5 C 381.821,238.892 380.154,239.392 378.5,240C 296.167,240.667 213.833,240.667 131.5,240C 130.099,239.59 128.766,239.09 127.5,238.5C 124.8,236.954 122.967,234.621 122,231.5C 118.641,221.56 121.807,214.726 131.5,211C 213.833,210.333 296.167,210.333 378.5,211C 380.949,211.725 383.283,212.725 385.5,214C 392.5,222.825 391.833,230.992 383.5,238.5 Z"/></g>
<g><path style="opacity:1" fill="#298dff" d="M 30.5,238.5 C 62.8333,238.5 95.1667,238.5 127.5,238.5C 128.766,239.09 130.099,239.59 131.5,240C 213.833,240.667 296.167,240.667 378.5,240C 380.154,239.392 381.821,238.892 383.5,238.5C 415.833,238.5 448.167,238.5 480.5,238.5C 480.5,246.167 480.5,253.833 480.5,261.5C 330.5,261.5 180.5,261.5 30.5,261.5C 30.5,253.833 30.5,246.167 30.5,238.5 Z"/></g>
<g><path style="opacity:1" fill="#2c8aff" d="M 30.5,261.5 C 180.5,261.5 330.5,261.5 480.5,261.5C 480.5,263.5 480.5,265.5 480.5,267.5C 330.5,267.5 180.5,267.5 30.5,267.5C 30.5,265.5 30.5,263.5 30.5,261.5 Z"/></g>
<g><path style="opacity:1" fill="#2f86ff" d="M 30.5,267.5 C 180.5,267.5 330.5,267.5 480.5,267.5C 480.5,277.5 480.5,287.5 480.5,297.5C 448.833,297.5 417.167,297.5 385.5,297.5C 392.042,289.593 392.042,281.76 385.5,274C 383.283,272.725 380.949,271.725 378.5,271C 296.167,270.333 213.833,270.333 131.5,271C 119.324,277.326 117.324,286.159 125.5,297.5C 93.8333,297.5 62.1667,297.5 30.5,297.5C 30.5,287.5 30.5,277.5 30.5,267.5 Z"/></g>
<g><path style="opacity:1" fill="#e9f5ff" d="M 385.5,297.5 C 383.188,298.32 380.854,299.153 378.5,300C 296.167,300.667 213.833,300.667 131.5,300C 129.372,299.345 127.372,298.511 125.5,297.5C 117.324,286.159 119.324,277.326 131.5,271C 213.833,270.333 296.167,270.333 378.5,271C 380.949,271.725 383.283,272.725 385.5,274C 392.042,281.76 392.042,289.593 385.5,297.5 Z"/></g>
<g><path style="opacity:1" fill="#347fff" d="M 30.5,297.5 C 62.1667,297.5 93.8333,297.5 125.5,297.5C 127.372,298.511 129.372,299.345 131.5,300C 213.833,300.667 296.167,300.667 378.5,300C 380.854,299.153 383.188,298.32 385.5,297.5C 417.167,297.5 448.833,297.5 480.5,297.5C 480.5,308.833 480.5,320.167 480.5,331.5C 407.998,331.167 335.665,331.501 263.5,332.5C 261.821,332.108 260.154,331.608 258.5,331C 216.167,330.333 173.833,330.333 131.5,331C 130.099,331.41 128.766,331.91 127.5,332.5C 95.3376,331.502 63.0043,331.168 30.5,331.5C 30.5,320.167 30.5,308.833 30.5,297.5 Z"/></g>
<g><path style="opacity:1" fill="#3a79ff" d="M 30.5,331.5 C 63.0043,331.168 95.3376,331.502 127.5,332.5C 119.693,338.969 118.526,346.636 124,355.5C 125.41,356.787 126.91,357.954 128.5,359C 150.605,360.151 172.772,360.651 195,360.5C 217.228,360.651 239.395,360.151 261.5,359C 267.24,356.205 270.24,351.538 270.5,345C 270.015,339.709 267.682,335.542 263.5,332.5C 335.665,331.501 407.998,331.167 480.5,331.5C 480.5,341.5 480.5,351.5 480.5,361.5C 330.5,361.5 180.5,361.5 30.5,361.5C 30.5,351.5 30.5,341.5 30.5,331.5 Z"/></g>
<g><path style="opacity:1" fill="#e3f2ff" d="M 263.5,332.5 C 267.682,335.542 270.015,339.709 270.5,345C 270.24,351.538 267.24,356.205 261.5,359C 239.395,360.151 217.228,360.651 195,360.5C 172.772,360.651 150.605,360.151 128.5,359C 126.91,357.954 125.41,356.787 124,355.5C 118.526,346.636 119.693,338.969 127.5,332.5C 128.766,331.91 130.099,331.41 131.5,331C 173.833,330.333 216.167,330.333 258.5,331C 260.154,331.608 261.821,332.108 263.5,332.5 Z"/></g>
<g><path style="opacity:1" fill="#3d75ff" d="M 30.5,361.5 C 180.5,361.5 330.5,361.5 480.5,361.5C 480.5,366.167 480.5,370.833 480.5,375.5C 330.5,375.5 180.5,375.5 30.5,375.5C 30.5,370.833 30.5,366.167 30.5,361.5 Z"/></g>
<g><path style="opacity:1" fill="#3f72ff" d="M 30.5,375.5 C 180.5,375.5 330.5,375.5 480.5,375.5C 480.5,380.5 480.5,385.5 480.5,390.5C 330.5,390.5 180.5,390.5 30.5,390.5C 30.5,385.5 30.5,380.5 30.5,375.5 Z"/></g>
<g><path style="opacity:1" fill="#426eff" d="M 30.5,390.5 C 180.5,390.5 330.5,390.5 480.5,390.5C 480.5,395.833 480.5,401.167 480.5,406.5C 453.165,406.333 425.831,406.5 398.5,407C 394.328,408.588 390.328,410.421 386.5,412.5C 267.833,412.5 149.167,412.5 30.5,412.5C 30.5,405.167 30.5,397.833 30.5,390.5 Z"/></g>
<g><path style="opacity:0.995" fill="#c9e8ff" d="M 480.5,406.5 C 480.752,409.32 480.252,411.986 479,414.5C 466.965,426.702 454.798,438.702 442.5,450.5C 420.167,450.5 397.833,450.5 375.5,450.5C 375.5,449.833 375.5,449.167 375.5,448.5C 374.497,438.747 375.83,429.414 379.5,420.5C 381.804,417.859 384.138,415.192 386.5,412.5C 390.328,410.421 394.328,408.588 398.5,407C 425.831,406.5 453.165,406.333 480.5,406.5 Z"/></g>
<g><path style="opacity:1" fill="#456bff" d="M 30.5,412.5 C 149.167,412.5 267.833,412.5 386.5,412.5C 384.138,415.192 381.804,417.859 379.5,420.5C 263.167,420.5 146.833,420.5 30.5,420.5C 30.5,417.833 30.5,415.167 30.5,412.5 Z"/></g>
<g><path style="opacity:1" fill="#4867ff" d="M 30.5,420.5 C 146.833,420.5 263.167,420.5 379.5,420.5C 375.83,429.414 374.497,438.747 375.5,448.5C 260.5,448.5 145.5,448.5 30.5,448.5C 30.5,439.167 30.5,429.833 30.5,420.5 Z"/></g>
<g><path style="opacity:1" fill="#4b64ff" d="M 30.5,448.5 C 145.5,448.5 260.5,448.5 375.5,448.5C 375.5,449.167 375.5,449.833 375.5,450.5C 375.5,451.833 375.5,453.167 375.5,454.5C 260.5,454.5 145.5,454.5 30.5,454.5C 30.5,452.5 30.5,450.5 30.5,448.5 Z"/></g>
<g><path style="opacity:0.991" fill="#bbe2ff" d="M 375.5,450.5 C 397.833,450.5 420.167,450.5 442.5,450.5C 422.473,471.194 402.14,491.527 381.5,511.5C 379.5,511.5 377.5,511.5 375.5,511.5C 375.5,504.5 375.5,497.5 375.5,490.5C 375.5,488.5 375.5,486.5 375.5,484.5C 375.5,474.5 375.5,464.5 375.5,454.5C 375.5,453.167 375.5,451.833 375.5,450.5 Z"/></g>
<g><path style="opacity:1" fill="#4e60ff" d="M 30.5,454.5 C 145.5,454.5 260.5,454.5 375.5,454.5C 375.5,464.5 375.5,474.5 375.5,484.5C 261.5,484.5 147.5,484.5 33.5,484.5C 32.3944,481.946 31.561,479.279 31,476.5C 30.5003,469.174 30.3337,461.841 30.5,454.5 Z"/></g>
<g><path style="opacity:1" fill="#515cff" d="M 33.5,484.5 C 147.5,484.5 261.5,484.5 375.5,484.5C 375.5,486.5 375.5,488.5 375.5,490.5C 262.833,490.5 150.167,490.5 37.5,490.5C 35.684,488.882 34.3507,486.882 33.5,484.5 Z"/></g>
<g><path style="opacity:0.998" fill="#535aff" d="M 37.5,490.5 C 150.167,490.5 262.833,490.5 375.5,490.5C 375.5,497.5 375.5,504.5 375.5,511.5C 272.167,511.5 168.833,511.5 65.5,511.5C 55.6451,508.508 47.1451,503.175 40,495.5C 38.9055,493.922 38.0722,492.255 37.5,490.5 Z"/></g>
</svg>